<svg width="29" height="28" viewBox="0 0 29 28" fill="none" xmlns="http://www.w3.org/2000/svg">
<path fill-rule="evenodd" clip-rule="evenodd" d="M3.41666 14.0001C3.41666 7.87851 8.37842 2.91675 14.5 2.91675C20.6216 2.91675 25.5833 7.87851 25.5833 14.0001C25.5833 20.1205 20.6216 25.0834 14.5 25.0834C8.37837 25.0834 3.41666 20.1205 3.41666 14.0001ZM15.375 10.1546C15.375 9.67133 14.9832 9.27958 14.5 9.27958C14.0168 9.27958 13.625 9.67133 13.625 10.1546V13.1273H10.6501C10.1668 13.1273 9.77506 13.5191 9.77506 14.0023C9.77506 14.4855 10.1668 14.8773 10.6501 14.8773H13.625V17.8462C13.625 18.3295 14.0168 18.7212 14.5 18.7212C14.9832 18.7212 15.375 18.3295 15.375 17.8462V14.8773H18.3496C18.8329 14.8773 19.2246 14.4855 19.2246 14.0023C19.2246 13.5191 18.8329 13.1273 18.3496 13.1273H15.375V10.1546Z" fill="white"/>
</svg>
