<svg width="25" height="24" viewBox="0 0 25 24" fill="none" xmlns="http://www.w3.org/2000/svg">
<path fill-rule="evenodd" clip-rule="evenodd" d="M6.12436 4.42419C4.46537 5.18252 3.25 6.98623 3.25 9.1371C3.25 11.3345 4.14922 13.0282 5.43829 14.4798C6.50072 15.6761 7.78684 16.6676 9.04113 17.6346C9.33904 17.8643 9.63515 18.0926 9.92605 18.3219C10.4521 18.7366 10.9213 19.1005 11.3736 19.3648C11.8261 19.6293 12.1904 19.75 12.5 19.75C12.8096 19.75 13.1739 19.6293 13.6264 19.3648C14.0787 19.1005 14.5479 18.7366 15.074 18.3219C15.3649 18.0926 15.661 17.8643 15.9589 17.6346C17.2132 16.6676 18.4993 15.6761 19.5617 14.4798C20.8508 13.0282 21.75 11.3345 21.75 9.1371C21.75 6.98623 20.5346 5.18252 18.8756 4.42419C17.2639 3.68748 15.0983 3.88258 13.0404 6.02073C12.899 6.16763 12.7039 6.25063 12.5 6.25063C12.2961 6.25063 12.101 6.16763 11.9596 6.02073C9.90166 3.88258 7.73607 3.68748 6.12436 4.42419ZM12.5 4.45881C10.1879 2.39024 7.59896 2.10087 5.50076 3.05996C3.28471 4.07292 1.75 6.42503 1.75 9.1371C1.75 11.8026 2.8605 13.8361 4.31672 15.4758C5.48287 16.7889 6.91022 17.888 8.17083 18.8586C8.45659 19.0786 8.73378 19.292 8.99742 19.4999C9.50965 19.9037 10.0595 20.3343 10.6168 20.6599C11.1739 20.9854 11.8096 21.25 12.5 21.25C13.1904 21.25 13.8261 20.9854 14.3832 20.6599C14.9405 20.3343 15.4903 19.9037 16.0026 19.4999C16.2662 19.292 16.5434 19.0786 16.8292 18.8586C18.0898 17.888 19.5171 16.7889 20.6833 15.4758C22.1395 13.8361 23.25 11.8026 23.25 9.1371C23.25 6.42503 21.7153 4.07292 19.4992 3.05996C17.401 2.10087 14.8121 2.39024 12.5 4.45881Z" fill="#A3A3A3"/>
</svg>
