<svg width="20" height="20" viewBox="0 0 20 20" fill="none" xmlns="http://www.w3.org/2000/svg">
<path fill-rule="evenodd" clip-rule="evenodd" d="M10.0462 3.37947C10.476 2.94969 11.0589 2.70825 11.6667 2.70825C12.2745 2.70825 12.8574 2.94969 13.2871 3.37947C13.5661 3.65845 13.7657 4.00196 13.8715 4.37492H16.6667C17.0119 4.37492 17.2917 4.65474 17.2917 4.99992C17.2917 5.3451 17.0119 5.62492 16.6667 5.62492H13.8715C13.7657 5.99788 13.5661 6.34139 13.2871 6.62037C12.8574 7.05014 12.2745 7.29158 11.6667 7.29158C11.0589 7.29158 10.476 7.05014 10.0462 6.62037C9.76724 6.34139 9.56761 5.99788 9.46188 5.62492H3.33334C2.98817 5.62492 2.70834 5.3451 2.70834 4.99992C2.70834 4.65474 2.98817 4.37492 3.33334 4.37492H9.46188C9.56761 4.00196 9.76724 3.65845 10.0462 3.37947ZM12.7083 4.99992C12.7083 4.72365 12.5986 4.4587 12.4032 4.26335C12.2079 4.068 11.9429 3.95825 11.6667 3.95825C11.3904 3.95825 11.1255 4.068 10.9301 4.26335C10.7348 4.4587 10.625 4.72365 10.625 4.99992C10.625 5.27619 10.7348 5.54114 10.9301 5.73649C11.1255 5.93184 11.3904 6.04159 11.6667 6.04159C11.9429 6.04159 12.2079 5.93184 12.4032 5.73649C12.5986 5.54114 12.7083 5.27619 12.7083 4.99992Z" fill="white"/>
<path fill-rule="evenodd" clip-rule="evenodd" d="M5.04622 8.37947C5.47599 7.9497 6.05889 7.70825 6.66668 7.70825C7.27447 7.70825 7.85736 7.9497 8.28713 8.37947C8.56611 8.65845 8.76574 9.00196 8.87147 9.37492H16.6667C17.0119 9.37492 17.2917 9.65474 17.2917 9.99992C17.2917 10.3451 17.0119 10.6249 16.6667 10.6249H8.87147C8.76574 10.9979 8.56611 11.3414 8.28713 11.6204C7.85736 12.0501 7.27447 12.2916 6.66668 12.2916C6.05889 12.2916 5.47599 12.0501 5.04622 11.6204C4.76724 11.3414 4.56761 10.9979 4.46188 10.6249H3.33334C2.98817 10.6249 2.70834 10.3451 2.70834 9.99992C2.70834 9.65474 2.98817 9.37492 3.33334 9.37492H4.46188C4.56761 9.00196 4.76724 8.65845 5.04622 8.37947ZM7.40325 9.26335C7.5986 9.4587 7.70834 9.72365 7.70834 9.99992C7.70834 10.2762 7.5986 10.5411 7.40325 10.7365C7.2079 10.9318 6.94294 11.0416 6.66668 11.0416C6.39041 11.0416 6.12546 10.9318 5.93011 10.7365C5.73476 10.5411 5.62501 10.2762 5.62501 9.99992C5.62501 9.72365 5.73476 9.4587 5.93011 9.26335C6.12546 9.068 6.39041 8.95825 6.66668 8.95825C6.94294 8.95825 7.2079 9.068 7.40325 9.26335Z" fill="white"/>
<path fill-rule="evenodd" clip-rule="evenodd" d="M14.1667 12.7083C13.5589 12.7083 12.976 12.9497 12.5462 13.3795C12.2672 13.6585 12.0676 14.002 11.9619 14.3749H3.33334C2.98817 14.3749 2.70834 14.6547 2.70834 14.9999C2.70834 15.3451 2.98817 15.6249 3.33334 15.6249H11.9619C12.0676 15.9979 12.2672 16.3414 12.5462 16.6204C12.976 17.0501 13.5589 17.2916 14.1667 17.2916C14.7745 17.2916 15.3574 17.0501 15.7871 16.6204C16.0661 16.3414 16.2657 15.9979 16.3715 15.6249H16.6667C17.0119 15.6249 17.2917 15.3451 17.2917 14.9999C17.2917 14.6547 17.0119 14.3749 16.6667 14.3749H16.3715C16.2657 14.002 16.0661 13.6585 15.7871 13.3795C15.3574 12.9497 14.7745 12.7083 14.1667 12.7083ZM15.2083 14.9999C15.2083 14.7237 15.0986 14.4587 14.9032 14.2633C14.7079 14.068 14.4429 13.9583 14.1667 13.9583C13.8904 13.9583 13.6255 14.068 13.4301 14.2633C13.2348 14.4587 13.125 14.7237 13.125 14.9999C13.125 15.2762 13.2348 15.5411 13.4301 15.7365C13.6255 15.9318 13.8904 16.0416 14.1667 16.0416C14.4429 16.0416 14.7079 15.9318 14.9032 15.7365C15.0986 15.5411 15.2083 15.2762 15.2083 14.9999Z" fill="white"/>
</svg>
