<svg width="20" height="20" viewBox="0 0 20 20" fill="none" xmlns="http://www.w3.org/2000/svg">
<path fill-rule="evenodd" clip-rule="evenodd" d="M10 1.875C13.7908 1.875 16.875 4.9825 16.875 8.8025C16.875 13.4983 11.495 18.125 10 18.125C8.505 18.125 3.125 13.4983 3.125 8.8025C3.125 4.9825 6.20917 1.875 10 1.875ZM10 3.125C6.89833 3.125 4.375 5.6725 4.375 8.8025C4.375 12.785 9.06167 16.665 10 16.8717C10.9383 16.6642 15.625 12.7842 15.625 8.8025C15.625 5.6725 13.1017 3.125 10 3.125ZM10.0008 6.04167C11.4942 6.04167 12.7092 7.25667 12.7092 8.75083C12.7092 10.2442 11.4942 11.4583 10.0008 11.4583C8.5075 11.4583 7.2925 10.2442 7.2925 8.75083C7.2925 7.25667 8.5075 6.04167 10.0008 6.04167ZM10.0008 7.29167C9.19667 7.29167 8.5425 7.94583 8.5425 8.75083C8.5425 9.555 9.19667 10.2083 10.0008 10.2083C10.805 10.2083 11.4592 9.555 11.4592 8.75083C11.4592 7.94583 10.805 7.29167 10.0008 7.29167Z" fill="#A3A3A3"/>
</svg>
