<svg width="18" height="18" viewBox="0 0 18 18" fill="none" xmlns="http://www.w3.org/2000/svg">
<path fill-rule="evenodd" clip-rule="evenodd" d="M9 1.68848C12.4117 1.68848 15.1875 4.48523 15.1875 7.92323C15.1875 12.1495 10.3455 16.3135 9 16.3135C7.6545 16.3135 2.8125 12.1495 2.8125 7.92323C2.8125 4.48523 5.58825 1.68848 9 1.68848ZM9 2.81348C6.2085 2.81348 3.9375 5.10623 3.9375 7.92323C3.9375 11.5075 8.1555 14.9995 9 15.1855C9.8445 14.9987 14.0625 11.5067 14.0625 7.92323C14.0625 5.10623 11.7915 2.81348 9 2.81348ZM9.00075 5.43848C10.3447 5.43848 11.4382 6.53198 11.4382 7.87673C11.4382 9.22073 10.3447 10.3135 9.00075 10.3135C7.65675 10.3135 6.56325 9.22073 6.56325 7.87673C6.56325 6.53198 7.65675 5.43848 9.00075 5.43848ZM9.00075 6.56348C8.277 6.56348 7.68825 7.15223 7.68825 7.87673C7.68825 8.60048 8.277 9.18848 9.00075 9.18848C9.7245 9.18848 10.3132 8.60048 10.3132 7.87673C10.3132 7.15223 9.7245 6.56348 9.00075 6.56348Z" fill="#2E90FA"/>
</svg>
