<svg width="1007" height="995" viewBox="0 0 1007 995" fill="none" xmlns="http://www.w3.org/2000/svg">
<g opacity="0.1">
<ellipse opacity="0.4" cx="503.09" cy="497.101" rx="503.09" ry="497.101" fill="url(#paint0_linear_331_1087)"/>
<ellipse opacity="0.7" cx="503.091" cy="497.1" rx="345.713" ry="341.597" fill="url(#paint1_linear_331_1087)"/>
<ellipse cx="503.089" cy="497.1" rx="219.296" ry="216.685" fill="url(#paint2_linear_331_1087)"/>
</g>
<path d="M346.458 458.052L330.383 473.24C328.862 474.677 328 476.677 328 478.77C328 485.475 336.045 488.902 340.88 484.255L356.824 468.929C361.701 464.241 358.383 456 351.618 456C349.699 456 347.853 456.734 346.458 458.052Z" fill="#93E882"/>
<path d="M365.408 496.634C370.15 496.634 374.142 492.636 372.243 488.29V488.29C371.088 485.645 369.394 483.241 367.258 481.216C365.123 479.192 362.588 477.586 359.797 476.49V476.49C355.167 474.671 350.997 478.863 350.997 483.838V485.732C350.997 491.753 355.878 496.634 361.899 496.634H365.408Z" fill="#93E882"/>
<path d="M654.698 467.608V466.059C654.698 465.609 654.85 465.235 655.152 464.939C655.465 464.642 655.84 464.494 656.276 464.494H675.884C676.32 464.494 676.689 464.642 676.992 464.939C677.305 465.235 677.462 465.609 677.462 466.059V467.905C677.462 468.355 677.361 468.789 677.159 469.207C676.969 469.624 676.79 469.921 676.622 470.097L675.884 470.838L672.346 474.218C668.848 477.561 671.213 483.461 676.051 483.461V483.461C676.51 483.461 676.885 483.609 677.176 483.906C677.478 484.203 677.629 484.576 677.629 485.026V486.575C677.629 487.026 677.478 487.399 677.176 487.696C676.885 487.982 676.51 488.124 676.051 488.124H656.562C656.125 488.124 655.75 487.982 655.437 487.696C655.135 487.399 654.984 487.026 654.984 486.575V484.746C654.984 483.692 655.51 482.648 656.562 481.615L659.985 478.281C663.402 474.953 661.046 469.157 656.276 469.157V469.157C655.84 469.157 655.465 469.015 655.152 468.729C654.85 468.432 654.698 468.059 654.698 467.608Z" fill="white"/>
<path d="M627.568 478.781V466.059C627.568 465.631 627.719 465.263 628.021 464.955C628.335 464.648 628.721 464.494 629.18 464.494H632.319C632.744 464.494 633.113 464.648 633.427 464.955C633.74 465.263 633.897 465.631 633.897 466.059V478.814C633.897 480.429 634.255 481.632 634.971 482.423C635.699 483.214 636.818 483.609 638.329 483.609H641.015C642.525 483.609 643.639 483.214 644.355 482.423C645.083 481.632 645.446 480.429 645.446 478.814V466.059C645.446 465.631 645.597 465.263 645.9 464.955C646.213 464.648 646.588 464.494 647.024 464.494H650.147C650.606 464.494 650.992 464.648 651.305 464.955C651.618 465.263 651.775 465.631 651.775 466.059V478.781C651.775 481.791 650.874 484.126 649.072 485.784C647.271 487.432 644.641 488.256 641.182 488.256H638.161C634.691 488.256 632.056 487.432 630.254 485.784C628.463 484.126 627.568 481.791 627.568 478.781Z" fill="white"/>
<path d="M621.845 482.786C623.356 482.786 624.111 483.533 624.111 485.027V486.065C624.111 486.757 623.915 487.301 623.524 487.697C623.143 488.092 622.584 488.29 621.845 488.29H619.78C619.042 488.29 618.476 488.092 618.085 487.697C617.704 487.301 617.514 486.757 617.514 486.065V485.027C617.514 484.302 617.71 483.747 618.102 483.363C618.493 482.978 619.053 482.786 619.78 482.786H621.845Z" fill="white"/>
<path d="M607.393 486.608V466.059C607.393 465.631 607.55 465.263 607.863 464.955C608.177 464.648 608.551 464.494 608.988 464.494H612.11C612.569 464.494 612.95 464.648 613.252 464.955C613.565 465.263 613.722 465.631 613.722 466.059V486.575C613.722 487.004 613.56 487.372 613.235 487.68C612.922 487.976 612.547 488.124 612.11 488.124H608.988C608.551 488.124 608.177 487.982 607.863 487.696C607.55 487.399 607.393 487.037 607.393 486.608Z" fill="white"/>
<path d="M578.348 486.575V466.059C578.348 465.631 578.505 465.263 578.818 464.955C579.131 464.648 579.518 464.494 579.976 464.494H583.099C583.535 464.494 583.905 464.648 584.207 464.955C584.52 465.263 584.677 465.631 584.677 466.059V467.7C584.677 470.889 587.262 473.475 590.451 473.475V473.475C593.641 473.475 596.226 470.889 596.226 467.7V466.059C596.226 465.631 596.383 465.263 596.696 464.955C597.01 464.648 597.384 464.494 597.821 464.494H600.943C601.402 464.494 601.783 464.648 602.085 464.955C602.398 465.263 602.555 465.631 602.555 466.059V486.575C602.555 487.004 602.393 487.372 602.068 487.68C601.755 487.976 601.38 488.124 600.943 488.124H597.821C597.384 488.124 597.01 487.982 596.696 487.696C596.383 487.399 596.226 487.037 596.226 486.608V483.913C596.226 480.724 593.641 478.138 590.451 478.138V478.138C587.262 478.138 584.677 480.724 584.677 483.913V486.608C584.677 487.037 584.52 487.399 584.207 487.696C583.905 487.982 583.535 488.124 583.099 488.124H579.976C579.54 488.124 579.159 487.976 578.835 487.68C578.51 487.372 578.348 487.004 578.348 486.575Z" fill="white"/>
<path d="M551.977 485.34C549.906 483.395 548.871 480.39 548.871 476.326C548.871 472.25 549.906 469.24 551.977 467.295C554.058 465.34 557.175 464.362 561.327 464.362H565.07C567.611 464.362 569.855 465.01 571.802 466.307C573.76 467.603 574.74 469.377 574.74 471.629C574.74 472.277 574.544 472.744 574.152 473.03C573.76 473.305 573.38 473.442 573.011 473.442H571.013C569.983 473.442 569.183 472.838 568.612 471.629C567.784 469.893 566.408 469.026 564.483 469.026H561.495C559.044 469.026 557.382 469.542 556.509 470.575C555.636 471.607 555.2 473.519 555.2 476.309C555.2 479.1 555.636 481.017 556.509 482.06C557.382 483.093 559.044 483.609 561.495 483.609H564.835C566.76 483.609 568.131 482.741 568.948 481.006C569.519 479.786 570.325 479.176 571.365 479.176H573.363C573.889 479.176 574.303 479.369 574.605 479.753C574.919 480.138 575.075 480.555 575.075 481.006C575.075 483.258 574.102 485.032 572.154 486.328C570.207 487.614 567.963 488.256 565.423 488.256H561.327C557.175 488.256 554.058 487.284 551.977 485.34Z" fill="white"/>
<path d="M548.335 487.4C548.335 487.883 548.044 488.125 547.462 488.125H543.618C543.182 488.125 542.712 487.977 542.208 487.68C541.705 487.372 541.313 487.004 541.033 486.576L538.079 481.978C537.373 480.858 536.663 480.017 535.947 479.457C535.23 478.886 534.369 478.6 533.361 478.6V478.6C531.368 478.6 529.752 480.216 529.752 482.209V486.609C529.752 487.037 529.595 487.4 529.282 487.696C528.98 487.982 528.611 488.125 528.174 488.125H525.018C524.582 488.125 524.207 487.971 523.894 487.664C523.58 487.345 523.423 486.971 523.423 486.543V466.06C523.423 465.631 523.58 465.258 523.894 464.939C524.207 464.621 524.582 464.461 525.018 464.461H528.174C528.611 464.461 528.98 464.621 529.282 464.939C529.595 465.258 529.752 465.631 529.752 466.06V470.344C529.752 472.337 531.368 473.953 533.361 473.953V473.953C534.346 473.953 535.208 473.69 535.947 473.162C536.696 472.635 537.407 471.783 538.079 470.608L540.681 466.06C541.274 465.005 542.079 464.472 543.098 464.461H546.976C547.513 464.461 547.781 464.692 547.781 465.154C547.781 465.406 547.686 465.708 547.496 466.06L543.853 472.536C543.327 473.481 542.734 474.261 542.074 474.876C542.022 474.925 541.969 474.973 541.914 475.02C541.428 475.439 541.33 477.096 541.788 477.546V477.546C542.572 478.304 543.26 479.128 543.853 480.017L548.05 486.576C548.24 486.895 548.335 487.169 548.335 487.4Z" fill="white"/>
<path d="M492.771 486.608L496.984 470.921C498.126 466.647 501.841 464.505 508.131 464.494H517.179C517.593 464.494 517.934 464.648 518.203 464.955C518.483 465.263 518.623 465.62 518.623 466.026V486.608C518.623 487.037 518.466 487.399 518.153 487.696C517.839 487.982 517.464 488.124 517.028 488.124H513.872C513.413 488.124 513.033 487.982 512.73 487.696C512.439 487.399 512.294 487.026 512.294 486.575V486.575C512.294 484.282 510.435 482.423 508.141 482.423H504.661C502.122 482.423 499.898 484.125 499.234 486.575V486.575C499.122 487.026 498.87 487.399 498.478 487.696C498.087 487.982 497.673 488.124 497.236 488.124H493.929C493.493 488.124 493.179 488.004 492.989 487.762C492.799 487.509 492.704 487.29 492.704 487.103C492.715 486.916 492.737 486.751 492.771 486.608ZM503.078 472.47C502.336 475.127 504.334 477.759 507.093 477.759H507.993C510.368 477.759 512.294 475.834 512.294 473.458V473.458C512.294 471.083 510.368 469.157 507.993 469.157H507.51C506.435 469.157 505.495 469.459 504.689 470.064C503.895 470.657 503.358 471.459 503.078 472.47V472.47Z" fill="white"/>
<path d="M459.194 486.542V466.092C459.194 465.642 459.345 465.263 459.647 464.955C459.95 464.648 460.319 464.494 460.755 464.494H467.588C468.024 464.494 468.438 464.648 468.83 464.955C469.222 465.263 469.485 465.631 469.619 466.059V466.059C471.264 470.736 477.878 470.736 479.523 466.059V466.059C479.657 465.631 479.92 465.263 480.312 464.955C480.704 464.648 481.118 464.494 481.554 464.494H488.387C488.823 464.494 489.187 464.648 489.478 464.955C489.78 465.263 489.931 465.642 489.931 466.092V486.542C489.931 486.993 489.774 487.372 489.461 487.68C489.159 487.976 488.79 488.124 488.353 488.124H485.331C484.895 488.124 484.52 487.976 484.207 487.68C483.905 487.372 483.754 486.993 483.754 486.542V486.542C483.754 483.354 479.318 482.568 478.222 485.563L477.828 486.641C477.671 487.048 477.397 487.399 477.005 487.696C476.613 487.982 476.199 488.124 475.763 488.124H473.362C472.926 488.124 472.512 487.982 472.12 487.696C471.74 487.399 471.465 487.048 471.298 486.641L470.906 485.568C469.816 482.579 465.389 483.361 465.389 486.542V486.542C465.389 486.993 465.232 487.372 464.918 487.68C464.616 487.976 464.247 488.124 463.811 488.124H460.789C460.352 488.124 459.978 487.976 459.664 487.68C459.351 487.372 459.194 486.993 459.194 486.542Z" fill="white"/>
<path d="M453.235 464.494C454.679 464.494 455.4 465.016 455.4 466.059C455.4 466.345 455.322 466.68 455.165 467.065L453.168 472.025C452.933 472.563 452.58 473.013 452.11 473.376C451.64 473.738 451.109 473.92 450.515 473.92H449.861C449.156 473.92 448.708 473.777 448.518 473.491C448.339 473.195 448.249 472.893 448.249 472.585C448.249 472.277 448.272 471.981 448.316 471.695L449.307 466.389C449.408 465.873 449.715 465.428 450.23 465.054C450.745 464.681 451.288 464.494 451.858 464.494H453.235Z" fill="white"/>
<path d="M443.03 485.686C440.747 487.652 437.389 488.635 432.958 488.635C428.537 488.635 425.18 487.652 422.885 485.686C420.591 483.708 419.444 480.583 419.444 476.309C419.444 472.036 420.591 468.916 422.885 466.949C425.18 464.983 428.537 464 432.958 464C437.389 464 440.747 464.983 443.03 466.949C445.324 468.916 446.471 472.036 446.471 476.309C446.471 480.583 445.324 483.708 443.03 485.686ZM438.447 470.426C437.317 469.108 435.487 468.449 432.958 468.449C430.44 468.449 428.61 469.108 427.468 470.426C426.338 471.745 425.773 473.711 425.773 476.326C425.773 478.929 426.338 480.89 427.468 482.209C428.61 483.516 430.44 484.17 432.958 484.17C435.487 484.17 437.317 483.516 438.447 482.209C439.577 480.89 440.143 478.929 440.143 476.326C440.143 473.711 439.577 471.745 438.447 470.426Z" fill="white"/>
<path d="M418.906 487.4C418.906 487.883 418.615 488.125 418.033 488.125H414.189C413.752 488.125 413.282 487.977 412.779 487.68C412.275 487.372 411.883 487.004 411.604 486.576L408.649 481.978C407.944 480.858 407.233 480.017 406.517 479.457C405.801 478.886 404.939 478.6 403.932 478.6V478.6C401.939 478.6 400.323 480.216 400.323 482.209V486.609C400.323 487.037 400.166 487.4 399.853 487.696C399.551 487.982 399.181 488.125 398.745 488.125H395.589C395.152 488.125 394.777 487.971 394.464 487.664C394.151 487.345 393.994 486.971 393.994 486.543V466.06C393.994 465.631 394.151 465.258 394.464 464.939C394.777 464.621 395.152 464.461 395.589 464.461H398.745C399.181 464.461 399.551 464.621 399.853 464.939C400.166 465.258 400.323 465.631 400.323 466.06V470.344C400.323 472.337 401.939 473.953 403.932 473.953V473.953C404.917 473.953 405.779 473.69 406.517 473.162C407.267 472.635 407.978 471.783 408.649 470.608L411.251 466.06C411.844 465.005 412.65 464.472 413.668 464.461H417.546C418.083 464.461 418.352 464.692 418.352 465.154C418.352 465.406 418.257 465.708 418.067 466.06L414.424 472.536C413.898 473.481 413.305 474.261 412.644 474.876C412.592 474.925 412.539 474.973 412.485 475.02C411.998 475.439 411.901 477.096 412.359 477.546V477.546C413.142 478.304 413.831 479.128 414.424 480.017L418.621 486.576C418.811 486.895 418.906 487.169 418.906 487.4Z" fill="white"/>
<defs>
<linearGradient id="paint0_linear_331_1087" x1="550.819" y1="-131.286" x2="504.217" y2="994.248" gradientUnits="userSpaceOnUse">
<stop stop-color="#BDFFAF"/>
<stop offset="1" stop-color="#93E882"/>
</linearGradient>
<linearGradient id="paint1_linear_331_1087" x1="535.89" y1="65.2865" x2="503.866" y2="838.73" gradientUnits="userSpaceOnUse">
<stop stop-color="#BDFFAF"/>
<stop offset="1" stop-color="#93E882"/>
</linearGradient>
<linearGradient id="paint2_linear_331_1087" x1="523.894" y1="223.189" x2="503.58" y2="713.806" gradientUnits="userSpaceOnUse">
<stop stop-color="#BDFFAF"/>
<stop offset="1" stop-color="#93E882"/>
</linearGradient>
</defs>
</svg>
