<?xml version="1.0" encoding="UTF-8"?>
<svg width="1024px" height="1024px" viewBox="0 0 1024 1024" version="1.1" xmlns="http://www.w3.org/2000/svg" xmlns:xlink="http://www.w3.org/1999/xlink">
    <title>Group 2085663103</title>
    <defs>
        <linearGradient x1="54.7435846%" y1="-11.6661913%" x2="50.1120078%" y2="98.7872686%" id="linearGradient-1">
            <stop stop-color="#BDFFAF" offset="0%"></stop>
            <stop stop-color="#93E882" offset="100%"></stop>
        </linearGradient>
        <linearGradient x1="54.7436747%" y1="-11.779091%" x2="50.1120872%" y2="98.8766351%" id="linearGradient-2">
            <stop stop-color="#BDFFAF" offset="0%"></stop>
            <stop stop-color="#93E882" offset="100%"></stop>
        </linearGradient>
        <linearGradient x1="54.7435886%" y1="-11.9183029%" x2="50.1119491%" y2="98.986962%" id="linearGradient-3">
            <stop stop-color="#BDFFAF" offset="0%"></stop>
            <stop stop-color="#93E882" offset="100%"></stop>
        </linearGradient>
    </defs>
    <g id="Page-1" stroke="none" stroke-width="1" fill="none" fill-rule="evenodd">
        <g id="Group-2085663103" fill-rule="nonzero">
            <rect id="Rectangle" fill="#0051BA" x="0" y="0" width="1024" height="1024" rx="36"></rect>
            <g id="Group" opacity="0.1" transform="translate(63.000000, 68.000000)">
                <ellipse id="Oval" fill="url(#linearGradient-1)" opacity="0.4" cx="449" cy="443.5" rx="449" ry="443.5"></ellipse>
                <ellipse id="Oval" fill="url(#linearGradient-2)" opacity="0.7" cx="448.5" cy="444" rx="308.5" ry="305"></ellipse>
                <ellipse id="Oval" fill="url(#linearGradient-3)" cx="448.5" cy="443.5" rx="195.5" ry="193.5"></ellipse>
            </g>
            <g id="Group-2" transform="translate(110.000000, 466.000000)">
                <path d="M42.6698152,4.65856647 L5.50884005,39.1392232 C1.99270672,42.4015819 0,46.942095 0,51.693742 C0,66.9158123 18.5978255,74.6959816 29.7750146,64.1460993 L66.6331539,29.3521472 C77.9074354,18.7091844 70.2371327,0 54.5983149,0 C50.1621151,0 45.8946712,1.66636832 42.6698152,4.65856647 Z" id="Path" fill="#93E882"></path>
                <path d="M86.1603007,92 C97.0718368,92 106.257592,82.8681599 101.887915,72.9414522 L101.887915,72.9414522 C99.2302131,66.9000022 95.3322498,61.4090208 90.4172264,56.7837141 C85.504504,52.1606915 79.6713653,48.4924236 73.2491601,45.9890477 L73.2491601,45.9890477 C62.5953406,41.834266 53,51.4092219 53,62.7726298 L53,67.0987191 C53,80.8512977 64.2313807,92 78.0859481,92 L86.1603007,92 Z" id="Path" fill="#93E882"></path>
                <path d="M750,26.1162082 L750,22.576386 C750,21.5480322 750.351315,20.6933559 751.049322,20.0169276 C751.772753,19.3382141 752.639484,19 753.647202,19 L798.966813,19 C799.974532,19 800.827395,19.3382141 801.527714,20.0169276 C802.251145,20.6933559 802.614016,21.5480322 802.614016,22.576386 L802.614016,26.7949217 C802.614016,27.8232755 802.380577,28.8150656 801.913698,29.770292 C801.474554,30.7232332 801.060835,31.4019467 800.672539,31.8041473 L798.966813,33.4975032 L790.789499,41.2215827 C782.704636,48.8611088 788.170817,62.3439695 799.352798,62.3439695 L799.352798,62.3439695 C800.413676,62.3439695 801.280406,62.6821837 801.952989,63.3608972 C802.650996,64.0396107 803,64.8920017 803,65.9203555 L803,69.4601777 C803,70.4908168 802.650996,71.3432078 801.952989,72.0219213 C801.280406,72.6754972 800.413676,73 799.352798,73 L754.308229,73 C753.298199,73 752.431468,72.6754972 751.708037,72.0219213 C751.01003,71.3432078 750.661027,70.4908168 750.661027,69.4601777 L750.661027,65.2804909 C750.661027,62.8718578 751.876761,60.486077 754.308229,58.1254338 L762.219746,50.5064748 C770.117396,42.9012273 764.672016,29.6560305 753.647202,29.6560305 L753.647202,29.6560305 C752.639484,29.6560305 751.772753,29.3315277 751.049322,28.6779518 C750.351315,27.9992383 750,27.1468472 750,26.1162082 Z" id="Path" fill="#FFFFFF"></path>
                <path d="M688,51.4677216 L688,22.5565188 C688,21.5838734 688.343083,20.7475802 689.029248,20.0476391 C689.742678,19.3499705 690.619697,19 691.662577,19 L698.794605,19 C699.760235,19 700.598628,19.3499705 701.312058,20.0476391 C702.023216,20.7475802 702.379931,21.5838734 702.379931,22.5565188 L702.379931,51.5427153 C702.379931,55.2128609 703.193333,57.9467217 704.820135,59.7442976 C706.474202,61.5418736 709.016648,62.4395253 712.449746,62.4395253 L718.552526,62.4395253 C721.983352,62.4395253 724.514438,61.5418736 726.14124,59.7442976 C727.795307,57.9467217 728.620069,55.2128609 728.620069,51.5427153 L728.620069,22.5565188 C728.620069,21.5838734 728.963151,20.7475802 729.651588,20.0476391 C730.362746,19.3499705 731.214773,19 732.205395,19 L739.30107,19 C740.34395,19 741.220969,19.3499705 741.932127,20.0476391 C742.643285,20.7475802 743,21.5838734 743,22.5565188 L743,51.4677216 C743,58.3080549 740.952865,63.6144264 736.858595,67.3822911 C732.766596,71.1274304 726.791052,73 718.931962,73 L712.068038,73 C704.183955,73 698.19705,71.1274304 694.10278,67.3822911 C690.033503,63.6144264 688,58.3080549 688,51.4677216 Z" id="Path" fill="#FFFFFF"></path>
                <path d="M673.847658,60 C677.283311,60 679,61.7643532 679,65.2930596 L679,67.7447311 C679,69.3791788 678.554343,70.6640625 677.665302,71.5993823 C676.799,72.5323401 675.527967,73 673.847658,73 L669.152342,73 C667.474307,73 666.187358,72.5323401 665.298317,71.5993823 C664.432015,70.6640625 664,69.3791788 664,67.7447311 L664,65.2930596 C664,63.5806686 664.445657,62.2698038 665.336971,61.362827 C666.226012,60.4534884 667.499318,60 669.152342,60 L673.847658,60 Z" id="Path" fill="#FFFFFF"></path>
                <path d="M642,69.5355904 L642,22.576386 C642,21.5983072 642.372097,20.7573424 643.11392,20.0534913 C643.858113,19.3519255 644.744509,19 645.780218,19 L653.179491,19 C654.267341,19 655.170327,19.3519255 655.88608,20.0534913 C656.627903,20.7573424 657,21.5983072 657,22.576386 L657,69.4601777 C657,70.4405417 656.616053,71.2815066 655.845789,71.9853576 C655.103966,72.6617859 654.2152,73 653.179491,73 L645.780218,73 C644.744509,73 643.858113,72.6754972 643.11392,72.0219213 C642.372097,71.3432078 642,70.5159543 642,69.5355904 Z" id="Path" fill="#FFFFFF"></path>
                <path d="M575,69.4601777 L575,22.576386 C575,21.5983072 575.356715,20.7573424 576.067873,20.0534913 C576.779031,19.3519255 577.658322,19 578.69893,19 L585.794605,19 C586.785227,19 587.625893,19.3519255 588.312058,20.0534913 C589.023216,20.7573424 589.379931,21.5983072 589.379931,22.576386 L589.379931,26.3264494 C589.379931,33.6140499 595.253233,39.5236564 602.498864,39.5236564 L602.498864,39.5236564 C609.746767,39.5236564 615.620069,33.6140499 615.620069,26.3264494 L615.620069,22.576386 C615.620069,21.5983072 615.976784,20.7573424 616.687942,20.0534913 C617.401372,19.3519255 618.251126,19 619.24402,19 L626.337423,19 C627.380303,19 628.245962,19.3519255 628.932127,20.0534913 C629.643285,20.7573424 630,21.5983072 630,22.576386 L630,69.4601777 C630,70.4405417 629.631925,71.2815066 628.893502,71.9853576 C628.182344,72.6617859 627.330318,73 626.337423,73 L619.24402,73 C618.251126,73 617.401372,72.6754972 616.687942,72.0219213 C615.976784,71.3432078 615.620069,70.5159543 615.620069,69.5355904 L615.620069,63.3768938 C615.620069,56.0892933 609.746767,50.1796868 602.498864,50.1796868 L602.498864,50.1796868 C595.253233,50.1796868 589.379931,56.0892933 589.379931,63.3768938 L589.379931,69.5355904 C589.379931,70.5159543 589.023216,71.3432078 588.312058,72.0219213 C587.625893,72.6754972 586.785227,73 585.794605,73 L578.69893,73 C577.708308,73 576.842649,72.6617859 576.106498,71.9853576 C575.368075,71.2815066 575,70.4405417 575,69.4601777 Z" id="Path" fill="#FFFFFF"></path>
                <path d="M514.111891,67.2878547 C509.369867,62.8107893 507,55.8937809 507,46.5391312 C507,37.1568595 509.369867,30.2283418 514.111891,25.7512765 C518.876813,21.2511928 526.013891,19 535.520837,19 L544.091284,19 C549.909479,19 555.047626,20.4915878 559.505724,23.4770654 C563.989009,26.4602411 566.232942,30.543693 566.232942,35.7274211 C566.232942,37.219009 565.784155,38.293965 564.886582,38.9522893 C563.989009,39.5852934 563.118913,39.9006445 562.274004,39.9006445 L557.69913,39.9006445 C555.340711,39.9006445 553.50893,38.5103373 552.201496,35.7274211 C550.305602,31.7314389 547.154938,29.7357496 542.747214,29.7357496 L535.905511,29.7357496 C530.29339,29.7357496 526.487864,30.9234954 524.488933,33.301289 C522.490002,35.6767808 521.491681,40.0778857 521.491681,46.5 C521.491681,52.9244162 522.490002,57.3370302 524.488933,59.7378421 C526.487864,62.1156357 530.29339,63.3033816 535.905511,63.3033816 L543.553198,63.3033816 C547.960922,63.3033816 551.100137,61.3053905 552.970844,57.3117101 C554.278278,54.5034737 556.123798,53.0993555 558.505114,53.0993555 L563.079988,53.0993555 C564.284384,53.0993555 565.232331,53.5436093 565.923828,54.4275132 C566.642803,55.3137189 567,56.2735833 567,57.3117101 C567,62.4954382 564.772096,66.5788901 560.311708,69.5620658 C555.85361,72.5222232 550.715463,74 544.899557,74 L535.520837,74 C526.013891,74 518.876813,71.7626182 514.111891,67.2878547 Z" id="Path" fill="#FFFFFF"></path>
                <path d="M506,71.3455882 C506,72.4477688 505.334176,73 504.002529,73 L495.20725,73 C494.209658,73 493.134273,72.6622718 491.981093,71.9845335 C490.830202,71.2816937 489.933285,70.4419371 489.29263,69.4652637 L482.533719,58.9728702 C480.918353,56.4170892 479.293834,54.4979716 477.655588,53.2200811 C476.015053,51.9170892 474.045039,51.2644523 471.73868,51.2644523 L471.73868,51.2644523 C467.178589,51.2644523 463.481093,54.9520791 463.481093,59.5 L463.481093,69.540568 C463.481093,70.5172414 463.121869,71.3455882 462.405708,72.0210446 C461.714716,72.6736815 460.870424,73 459.870544,73 L452.649446,73 C451.651855,73 450.793834,72.6485801 450.077673,71.9480223 C449.359224,71.2200811 449,70.3666329 449,69.3899594 L449,22.6488337 C449,21.6698783 449.359224,20.818712 450.077673,20.0907708 C450.793834,19.3651116 451.651855,19 452.649446,19 L459.870544,19 C460.870424,19 461.714716,19.3651116 462.405708,20.0907708 C463.121869,20.818712 463.481093,21.6698783 463.481093,22.6488337 L463.481093,32.4246957 C463.481093,36.9726166 467.178589,40.6602434 471.73868,40.6602434 L471.73868,40.6602434 C473.992413,40.6602434 475.964716,40.0600913 477.655588,38.8552231 C479.36934,37.6526369 480.996146,35.7084178 482.533719,33.0271298 L488.487235,22.6488337 C489.844051,20.2413793 491.685934,19.0251014 494.017461,19 L502.890535,19 C504.11922,19 504.732418,19.5271298 504.732418,20.5813895 C504.732418,21.1564402 504.515053,21.8455882 504.080323,22.6488337 L495.744942,37.4267241 C494.541426,39.5831643 493.18461,41.3630832 491.674494,42.7664807 C491.555515,42.8782961 491.434249,42.9878296 491.308406,43.0950811 C490.196411,44.051217 489.972182,47.8324037 491.020111,48.8592799 L491.020111,48.8592799 C492.813945,50.5889959 494.388126,52.4693205 495.744942,54.4979716 L505.347905,69.4652637 C505.782635,70.1932049 506,70.8184584 506,71.3455882 Z" id="Path" fill="#FFFFFF"></path>
                <path d="M378.152514,69.5355904 L387.74266,33.6871773 C390.34222,23.9201016 398.798758,19.0251375 413.116825,19 L433.71299,19 C434.655388,19 435.431614,19.3519255 436.043945,20.0534913 C436.681315,20.7573424 437,21.5731697 437,22.5009733 L437,69.5355904 C437,70.5159543 436.642617,71.3432078 435.930128,72.0219213 C435.215363,72.6754972 434.361742,73 433.369266,73 L426.185192,73 C425.14036,73 424.275358,72.6754972 423.585632,72.0219213 C422.923222,71.3432078 422.593156,70.4908168 422.593156,69.4601777 L422.593156,69.4601777 C422.593156,64.2201439 418.361472,59.9719001 413.139589,59.9719001 L405.217987,59.9719001 C399.438404,59.9719001 394.375863,63.8613627 392.864385,69.4601777 L392.864385,69.4601777 C392.609437,70.4908168 392.035804,71.3432078 391.143485,72.0219213 C390.253443,72.6754972 389.311046,73 388.316293,73 L380.788495,73 C379.796018,73 379.081253,72.7257723 378.648752,72.1727465 C378.216251,71.5945832 378,71.0941176 378,70.6667795 C378.02504,70.2394414 378.075119,69.8623783 378.152514,69.5355904 Z M401.614568,37.2269996 C399.925537,43.2988574 404.473629,49.3135844 410.754003,49.3135844 L412.802693,49.3135844 C418.208959,49.3135844 422.593156,44.9145154 422.593156,39.4848074 L422.593156,39.4848074 C422.593156,34.0573847 418.208959,29.6560305 412.802693,29.6560305 L411.703229,29.6560305 C409.256183,29.6560305 407.11644,30.3461701 405.281724,31.7287347 C403.474324,33.0838764 402.251939,34.9166314 401.614568,37.2269996 L401.614568,37.2269996 Z" id="Shape" fill="#FFFFFF"></path>
                <path d="M301,69.3847651 L301,22.6517986 C301,21.6234448 301.348798,20.7573424 302.046394,20.0534913 C302.746299,19.3519255 303.59866,19 304.605785,19 L320.389465,19 C321.39659,19 322.352897,19.3519255 323.258386,20.0534913 C324.163874,20.7573424 324.771383,21.5983072 325.080912,22.576386 L325.080912,22.576386 C328.88073,33.2644096 344.158539,33.2644096 347.958356,22.576386 L347.958356,22.576386 C348.267886,21.5983072 348.875394,20.7573424 349.780883,20.0534913 C350.686371,19.3519255 351.642678,19 352.649803,19 L368.433484,19 C369.440609,19 370.28142,19.3519255 370.953606,20.0534913 C371.651202,20.7573424 372,21.6234448 372,22.6517986 L372,69.3847651 C372,70.4154041 371.637343,71.2815066 370.914338,71.9853576 C370.216742,72.6617859 369.364382,73 368.354947,73 L361.37437,73 C360.367245,73 359.501025,72.6617859 358.77802,71.9853576 C358.080424,71.2815066 357.731626,70.4154041 357.731626,69.3847651 L357.731626,69.3847651 C357.731626,62.0994499 347.484823,60.3032586 344.953151,67.1475243 L344.043043,69.611003 C343.680385,70.5410918 343.047467,71.3432078 342.141979,72.0219213 C341.23649,72.6754972 340.280183,73 339.273059,73 L333.726941,73 C332.719817,73 331.76351,72.6754972 330.858021,72.0219213 C329.980252,71.3432078 329.345024,70.5410918 328.959267,69.611003 L328.053779,67.1589505 C325.535966,60.3283961 315.309952,62.1154465 315.309952,69.3847651 L315.309952,69.3847651 C315.309952,70.4154041 314.947295,71.2815066 314.22198,71.9853576 C313.524384,72.6617859 312.672024,73 311.664899,73 L304.684322,73 C303.674887,73 302.810977,72.6617859 302.085662,71.9853576 C301.362657,71.2815066 301,70.4154041 301,69.3847651 Z" id="Path" fill="#FFFFFF"></path>
                <path d="M287.155922,19 C290.386799,19 292,20.1629535 292,22.4866327 C292,23.1238065 291.825479,23.8701464 291.474199,24.7278803 L287.006013,35.7781668 C286.480213,36.9767664 285.690393,37.9793125 284.638792,38.7880331 C283.587191,39.5945258 282.399105,40 281.07006,40 L279.606768,40 C278.029367,40 277.026989,39.6814131 276.601874,39.0442393 C276.20137,38.3847868 276,37.7119669 276,37.0257798 C276,36.3395926 276.051461,35.68014 276.149909,35.0429663 L278.367221,23.2218332 C278.593204,22.072247 279.280101,21.0808402 280.432387,20.247613 C281.584673,19.4166136 282.799608,19 284.074955,19 L287.155922,19 Z" id="Path" fill="#FFFFFF"></path>
                <path d="M264.106338,68.1766592 C258.869131,72.7255531 251.165871,75 241.001147,75 C230.859363,75 223.158397,72.7255531 217.893662,68.1766592 C212.631221,63.6 210,56.3694337 210,46.4803329 C210,36.5935458 212.631221,29.3745484 217.893662,24.8233408 C223.158397,20.2744469 230.859363,18 241.001147,18 C251.165871,18 258.869131,20.2744469 264.106338,24.8233408 C269.368779,29.3745484 272,36.5935458 272,46.4803329 C272,56.3694337 269.368779,63.6 264.106338,68.1766592 Z M253.592926,32.868358 C251.000703,29.8187944 246.802679,28.2940126 241.001147,28.2940126 C235.224849,28.2940126 231.026825,29.8187944 228.407074,32.868358 C225.814852,35.9202354 224.518741,40.4691293 224.518741,46.5196671 C224.518741,52.5424396 225.814852,57.0797646 228.407074,60.131642 C231.026825,63.155754 235.224849,64.6689669 241.001147,64.6689669 C246.802679,64.6689669 251.000703,63.155754 253.592926,60.131642 C256.185148,57.0797646 257.483553,52.5424396 257.483553,46.5196671 C257.483553,40.4691293 256.185148,35.9202354 253.592926,32.868358 Z" id="Shape" fill="#FFFFFF"></path>
                <path d="M208,71.3455882 C208,72.4477688 207.334176,73 206.002529,73 L197.20725,73 C196.20737,73 195.131985,72.6622718 193.981093,71.9845335 C192.827914,71.2816937 191.930997,70.4419371 191.29263,69.4652637 L184.531431,58.9728702 C182.918353,56.4170892 181.291546,54.4979716 179.6533,53.2200811 C178.015053,51.9170892 176.04275,51.2644523 173.73868,51.2644523 L173.73868,51.2644523 C169.178589,51.2644523 165.481093,54.9520791 165.481093,59.5 L165.481093,69.540568 C165.481093,70.5172414 165.121869,71.3455882 164.405708,72.0210446 C163.714716,72.6736815 162.868136,73 161.870544,73 L154.649446,73 C153.649566,73 152.791546,72.6485801 152.075385,71.9480223 C151.359224,71.2200811 151,70.3666329 151,69.3899594 L151,22.6488337 C151,21.6698783 151.359224,20.818712 152.075385,20.0907708 C152.791546,19.3651116 153.649566,19 154.649446,19 L161.870544,19 C162.868136,19 163.714716,19.3651116 164.405708,20.0907708 C165.121869,20.818712 165.481093,21.6698783 165.481093,22.6488337 L165.481093,32.4246957 C165.481093,36.9726166 169.178589,40.6602434 173.73868,40.6602434 L173.73868,40.6602434 C175.992413,40.6602434 177.964716,40.0600913 179.6533,38.8552231 C181.36934,37.6526369 182.996146,35.7084178 184.531431,33.0271298 L190.484947,22.6488337 C191.841763,20.2413793 193.685934,19.0251014 196.015173,19 L204.888247,19 C206.116932,19 206.732418,19.5271298 206.732418,20.5813895 C206.732418,21.1564402 206.515053,21.8455882 206.080323,22.6488337 L197.744942,37.4267241 C196.541426,39.5831643 195.18461,41.3630832 193.672206,42.7664807 C193.553227,42.8782961 193.431961,42.9878296 193.308406,43.0950811 C192.194123,44.051217 191.972182,47.8324037 193.020111,48.8592799 L193.020111,48.8592799 C194.811657,50.5889959 196.388126,52.4693205 197.744942,54.4979716 L207.347905,69.4652637 C207.782635,70.1932049 208,70.8184584 208,71.3455882 Z" id="Path" fill="#FFFFFF"></path>
            </g>
        </g>
    </g>
</svg>