<svg width="255" height="30" viewBox="0 0 255 30" fill="none" xmlns="http://www.w3.org/2000/svg">
<path d="M238.272 9.22832V8.08472C238.272 7.75219 238.383 7.47642 238.603 7.25744C238.832 7.03845 239.105 6.92896 239.423 6.92896H253.727C254.045 6.92896 254.315 7.03845 254.535 7.25744C254.764 7.47642 254.878 7.75219 254.878 8.08472V9.44731C254.878 9.77985 254.804 10.1002 254.657 10.4084C254.519 10.7166 254.388 10.9356 254.266 11.0654L253.727 11.6129L244.089 20.932H253.849C254.184 20.932 254.457 21.0415 254.67 21.2605C254.89 21.4795 255 21.7552 255 22.0877V23.2313C255 23.5639 254.89 23.8396 254.67 24.0586C254.457 24.2695 254.184 24.375 253.849 24.375H239.632C239.313 24.375 239.04 24.2695 238.811 24.0586C238.591 23.8396 238.481 23.5639 238.481 23.2313V21.8809C238.481 21.1023 238.864 20.3318 239.632 19.5694L248.963 10.3719H239.423C239.105 10.3719 238.832 10.2665 238.603 10.0556C238.383 9.83662 238.272 9.56086 238.272 9.22832Z" fill="white"/>
<path d="M218.481 17.4768V8.08472C218.481 7.76841 218.591 7.4967 218.812 7.2696C219.04 7.0425 219.322 6.92896 219.657 6.92896H221.947C222.257 6.92896 222.526 7.0425 222.755 7.2696C222.984 7.4967 223.098 7.76841 223.098 8.08472V17.5012C223.098 18.6934 223.359 19.5816 223.882 20.1655C224.412 20.7495 225.229 21.0415 226.331 21.0415H228.29C229.392 21.0415 230.205 20.7495 230.727 20.1655C231.258 19.5816 231.523 18.6934 231.523 17.5012V8.08472C231.523 7.76841 231.633 7.4967 231.854 7.2696C232.082 7.0425 232.356 6.92896 232.674 6.92896H234.952C235.287 6.92896 235.568 7.0425 235.797 7.2696C236.025 7.4967 236.14 7.76841 236.14 8.08472V17.4768C236.14 19.6992 235.483 21.4227 234.168 22.6474C232.854 23.864 230.935 24.4723 228.413 24.4723H226.208C223.677 24.4723 221.755 23.864 220.44 22.6474C219.134 21.4227 218.481 19.6992 218.481 17.4768Z" fill="white"/>
<path d="M214.306 20.4336C215.408 20.4336 215.959 20.9851 215.959 22.0882V22.8546C215.959 23.3656 215.816 23.7671 215.531 24.0591C215.253 24.351 214.845 24.497 214.306 24.497H212.8C212.261 24.497 211.849 24.351 211.563 24.0591C211.285 23.7671 211.147 23.3656 211.147 22.8546V22.0882C211.147 21.5529 211.289 21.1433 211.575 20.8594C211.861 20.5755 212.269 20.4336 212.8 20.4336H214.306Z" fill="white"/>
<path d="M203.764 23.2557V8.08472C203.764 7.76841 203.878 7.4967 204.106 7.2696C204.335 7.0425 204.609 6.92896 204.927 6.92896H207.205C207.539 6.92896 207.817 7.0425 208.037 7.2696C208.266 7.4967 208.38 7.76841 208.38 8.08472V23.2313C208.38 23.5477 208.262 23.8194 208.025 24.0465C207.797 24.2655 207.523 24.375 207.205 24.375H204.927C204.609 24.375 204.335 24.2695 204.106 24.0586C203.878 23.8396 203.764 23.572 203.764 23.2557Z" fill="white"/>
<path d="M182.575 23.2313V8.08472C182.575 7.76841 182.69 7.4967 182.918 7.2696C183.147 7.0425 183.429 6.92896 183.763 6.92896H186.041C186.359 6.92896 186.629 7.0425 186.849 7.2696C187.078 7.4967 187.192 7.76841 187.192 8.08472V13.5594H195.617V8.08472C195.617 7.76841 195.732 7.4967 195.96 7.2696C196.189 7.0425 196.462 6.92896 196.781 6.92896H199.059C199.393 6.92896 199.671 7.0425 199.891 7.2696C200.12 7.4967 200.234 7.76841 200.234 8.08472V23.2313C200.234 23.5477 200.116 23.8194 199.879 24.0465C199.65 24.2655 199.377 24.375 199.059 24.375H196.781C196.462 24.375 196.189 24.2695 195.96 24.0586C195.732 23.8396 195.617 23.572 195.617 23.2557V17.0024H187.192V23.2557C187.192 23.572 187.078 23.8396 186.849 24.0586C186.629 24.2695 186.359 24.375 186.041 24.375H183.763C183.445 24.375 183.167 24.2655 182.931 24.0465C182.694 23.8194 182.575 23.5477 182.575 23.2313Z" fill="white"/>
<path d="M163.338 22.3189C161.827 20.8834 161.072 18.6651 161.072 15.6642C161.072 12.6551 161.827 10.4328 163.338 8.99721C164.856 7.55351 167.13 6.83167 170.159 6.83167H172.889C174.743 6.83167 176.379 7.31019 177.8 8.26725C179.229 9.22431 179.943 10.5342 179.943 12.1969C179.943 12.6754 179.8 13.0201 179.514 13.231C179.229 13.4337 178.951 13.5351 178.682 13.5351H177.224C176.473 13.5351 175.89 13.089 175.473 12.1969C174.869 10.9154 173.865 10.2746 172.461 10.2746H170.281C168.493 10.2746 167.281 10.6558 166.644 11.4182C166.007 12.1806 165.689 13.5919 165.689 15.652C165.689 17.7121 166.007 19.1274 166.644 19.8979C167.281 20.6603 168.493 21.0415 170.281 21.0415H172.718C174.122 21.0415 175.122 20.4008 175.718 19.1193C176.135 18.219 176.722 17.7689 177.482 17.7689H178.939C179.323 17.7689 179.625 17.9108 179.845 18.1947C180.074 18.4785 180.188 18.7868 180.188 19.1193C180.188 20.782 179.478 22.0918 178.057 23.0489C176.637 23.9978 175 24.4723 173.147 24.4723H170.159C167.13 24.4723 164.856 23.7545 163.338 22.3189Z" fill="white"/>
<path d="M160.681 23.8401C160.681 24.1969 160.469 24.3754 160.045 24.3754H157.24C156.922 24.3754 156.579 24.2659 156.212 24.0469C155.844 23.8198 155.558 23.5481 155.354 23.2318L153.199 19.8375C152.685 19.0102 152.166 18.3897 151.644 17.9761C151.121 17.5543 150.493 17.3434 149.758 17.3434H147.125V23.2561C147.125 23.5724 147.011 23.8401 146.782 24.059C146.562 24.2699 146.292 24.3754 145.974 24.3754H143.672C143.353 24.3754 143.08 24.2618 142.851 24.0347C142.623 23.7995 142.508 23.5237 142.508 23.2074V8.08513C142.508 7.76881 142.623 7.49305 142.851 7.25784C143.08 7.02263 143.353 6.90503 143.672 6.90503H145.974C146.292 6.90503 146.562 7.02263 146.782 7.25784C147.011 7.49305 147.125 7.76881 147.125 8.08513V13.9126H149.758C150.476 13.9126 151.105 13.718 151.644 13.3287C152.191 12.9393 152.709 12.3108 153.199 11.4429L155.097 8.08513C155.53 7.30651 156.118 6.91314 156.861 6.90503H159.689C160.081 6.90503 160.277 7.07535 160.277 7.416C160.277 7.60254 160.208 7.82559 160.069 8.08513L157.412 12.8664C157.028 13.5639 156.595 14.1397 156.114 14.5939C155.64 15.0481 155.02 15.3685 154.252 15.555C154.791 15.6686 155.342 16.0052 155.905 16.5648C156.477 17.1244 156.979 17.7327 157.412 18.3897L160.473 23.2318C160.612 23.467 160.681 23.6697 160.681 23.8401Z" fill="white"/>
<path d="M120.147 23.2557L123.221 11.6737C124.054 8.51864 126.764 6.93707 131.352 6.92896H137.953C138.255 6.92896 138.504 7.0425 138.7 7.2696C138.904 7.4967 139.006 7.7603 139.006 8.06039V23.2557C139.006 23.572 138.892 23.8396 138.663 24.0586C138.435 24.2695 138.161 24.375 137.843 24.375H135.541C135.206 24.375 134.928 24.2695 134.708 24.0586C134.496 23.8396 134.389 23.5639 134.389 23.2313V20.1655H125.683L124.862 23.2313C124.78 23.5639 124.597 23.8396 124.311 24.0586C124.025 24.2695 123.723 24.375 123.405 24.375H120.992C120.674 24.375 120.445 24.2857 120.307 24.1073C120.168 23.9208 120.098 23.7585 120.098 23.6207C120.107 23.4828 120.123 23.3611 120.147 23.2557ZM126.589 16.7226H134.389V10.3719H130.899C130.116 10.3719 129.43 10.595 128.842 11.0411C128.262 11.479 127.871 12.0711 127.666 12.8173L126.589 16.7226Z" fill="white"/>
<path d="M95.6536 23.207V8.10905C95.6536 7.77652 95.7638 7.4967 95.9842 7.2696C96.2046 7.0425 96.474 6.92896 96.7924 6.92896H101.777C102.095 6.92896 102.397 7.0425 102.683 7.2696C102.968 7.4967 103.16 7.76841 103.258 8.08472L106.871 18.4745L110.483 8.08472C110.581 7.76841 110.773 7.4967 111.059 7.2696C111.345 7.0425 111.647 6.92896 111.965 6.92896H116.949C117.268 6.92896 117.533 7.0425 117.745 7.2696C117.966 7.4967 118.076 7.77652 118.076 8.10905V23.207C118.076 23.5396 117.962 23.8194 117.733 24.0465C117.513 24.2655 117.243 24.375 116.925 24.375H114.721C114.402 24.375 114.129 24.2655 113.9 24.0465C113.68 23.8194 113.569 23.5396 113.569 23.207V11.3209L109.247 23.28C109.132 23.5801 108.932 23.8396 108.647 24.0586C108.361 24.2695 108.059 24.375 107.74 24.375H105.989C105.671 24.375 105.369 24.2695 105.083 24.0586C104.805 23.8396 104.605 23.5801 104.483 23.28L100.172 11.3209V23.207C100.172 23.5396 100.058 23.8194 99.8294 24.0465C99.609 24.2655 99.3396 24.375 99.0212 24.375H96.8169C96.4985 24.375 96.225 24.2655 95.9965 24.0465C95.7679 23.8194 95.6536 23.5396 95.6536 23.207Z" fill="white"/>
<path d="M91.3064 6.92896C92.3595 6.92896 92.8861 7.31421 92.8861 8.08472C92.8861 8.2956 92.829 8.54297 92.7147 8.82685L91.2574 12.4888C91.0859 12.8862 90.8288 13.2188 90.4859 13.4864C90.143 13.7541 89.7552 13.8879 89.3225 13.8879H88.8449C88.3306 13.8879 88.004 13.7824 87.8652 13.5716C87.7346 13.3526 87.6693 13.1295 87.6693 12.9024C87.6693 12.6753 87.6856 12.4564 87.7183 12.2455L88.4408 8.32804C88.5143 7.94684 88.7388 7.61836 89.1143 7.3426C89.4899 7.06684 89.8858 6.92896 90.3022 6.92896H91.3064Z" fill="white"/>
<path d="M83.8619 22.5745C82.1964 24.0263 79.7472 24.7522 76.5143 24.7522C73.2895 24.7522 70.8403 24.0263 69.1667 22.5745C67.4931 21.1146 66.6562 18.8071 66.6562 15.6521C66.6562 12.497 67.4931 10.1936 69.1667 8.74179C70.8403 7.28999 73.2895 6.56409 76.5143 6.56409C79.7472 6.56409 82.1964 7.28999 83.8619 8.74179C85.5355 10.1936 86.3723 12.497 86.3723 15.6521C86.3723 18.8071 85.5355 21.1146 83.8619 22.5745ZM80.5187 11.3088C79.6941 10.3355 78.3593 9.8489 76.5143 9.8489C74.6774 9.8489 73.3426 10.3355 72.5098 11.3088C71.6853 12.2821 71.273 13.7339 71.273 15.6642C71.273 17.5865 71.6853 19.0342 72.5098 20.0075C73.3426 20.9726 74.6774 21.4552 76.5143 21.4552C78.3593 21.4552 79.6941 20.9726 80.5187 20.0075C81.3433 19.0342 81.7555 17.5865 81.7555 15.6642C81.7555 13.7339 81.3433 12.2821 80.5187 11.3088Z" fill="white"/>
<path d="M66.2636 23.8401C66.2636 24.1969 66.0513 24.3754 65.6268 24.3754H62.8225C62.5041 24.3754 62.1612 24.2659 61.7938 24.0469C61.4264 23.8198 61.1407 23.5481 60.9366 23.2318L58.7813 19.8375C58.267 19.0102 57.7486 18.3897 57.2261 17.9761C56.7036 17.5543 56.075 17.3434 55.3402 17.3434H52.7073V23.2561C52.7073 23.5724 52.593 23.8401 52.3644 24.059C52.144 24.2699 51.8746 24.3754 51.5562 24.3754H49.2539C48.9355 24.3754 48.6621 24.2618 48.4335 24.0347C48.2049 23.7995 48.0906 23.5237 48.0906 23.2074V8.08513C48.0906 7.76881 48.2049 7.49305 48.4335 7.25784C48.6621 7.02263 48.9355 6.90503 49.2539 6.90503H51.5562C51.8746 6.90503 52.144 7.02263 52.3644 7.25784C52.593 7.49305 52.7073 7.76881 52.7073 8.08513V13.9126H55.3402C56.0586 13.9126 56.6873 13.718 57.2261 13.3287C57.7731 12.9393 58.2915 12.3108 58.7813 11.4429L60.6794 8.08513C61.1121 7.30651 61.6999 6.91314 62.4429 6.90503H65.2717C65.6636 6.90503 65.8595 7.07535 65.8595 7.416C65.8595 7.60254 65.7901 7.82559 65.6513 8.08513L62.9939 12.8664C62.6102 13.5639 62.1775 14.1397 61.6959 14.5939C61.2223 15.0481 60.6019 15.3685 59.8345 15.555C60.3733 15.6686 60.9244 16.0052 61.4877 16.5648C62.0592 17.1244 62.5612 17.7327 62.9939 18.3897L66.0554 23.2318C66.1942 23.467 66.2636 23.6697 66.2636 23.8401Z" fill="white"/>
<path d="M15.0495 0L0 14.3902V30L30.8391 0H15.0495Z" fill="#93E882"/>
<path d="M33.5523 29.9994C33.5523 27.8855 33.1184 25.7922 32.2753 23.8391C31.4322 21.8861 30.1965 20.1115 28.6386 18.6167C27.0808 17.1219 25.2314 15.9362 23.196 15.1272C21.1605 14.3182 18.979 13.9019 16.7759 13.9019V29.9994H33.5523Z" fill="#93E882"/>
</svg>
