<svg width="25" height="24" viewBox="0 0 25 24" fill="none" xmlns="http://www.w3.org/2000/svg">
<path fill-rule="evenodd" clip-rule="evenodd" d="M15.6006 20.8968C15.3644 20.8966 15.1301 20.8551 14.9083 20.774L9.61721 18.8494C9.46188 18.7921 9.2903 18.7977 9.13906 18.8651L5.82708 20.3421C5.57506 20.454 5.29905 20.5012 5.02414 20.4794C4.74924 20.4576 4.48413 20.3674 4.25293 20.2171C4.02172 20.0668 3.83175 19.8611 3.70026 19.6187C3.56877 19.3763 3.49994 19.1049 3.5 18.8291V7.13462C3.50049 6.65828 3.63879 6.19228 3.89824 5.79279C4.15768 5.39331 4.52717 5.07741 4.96214 4.88324L8.57599 3.27802C9.0547 3.0623 9.59895 3.04306 10.0917 3.22448L15.3828 5.14908C15.538 5.20677 15.7097 5.20113 15.8609 5.13339L19.1729 3.65649C19.4249 3.54452 19.7009 3.49729 19.9758 3.5191C20.2507 3.54092 20.5158 3.63108 20.747 3.7814C20.9783 3.93171 21.1682 4.13741 21.2997 4.37981C21.4312 4.62221 21.5001 4.89362 21.5 5.16939V16.8602C21.4995 17.3364 21.3613 17.8023 21.1018 18.2017C20.8423 18.601 20.4728 18.9167 20.0378 19.1106L16.424 20.7159C16.1653 20.8334 15.8847 20.8951 15.6006 20.8968ZM14.9556 19.3176V6.46728C14.9398 6.46193 14.924 6.45638 14.9083 6.45062L10.0373 4.67942V17.5246C10.0548 17.5306 10.0724 17.5368 10.0898 17.5432L14.9556 19.3176ZM16.3402 19.2421L19.4738 17.8497C19.6642 17.7648 19.8259 17.6266 19.9394 17.4519C20.0529 17.2771 20.1134 17.0732 20.1135 16.8648V5.17401C20.1138 5.12884 20.1027 5.08434 20.0813 5.04457C20.0599 5.0048 20.0288 4.97106 19.991 4.94642C19.9531 4.92179 19.9096 4.90706 19.8646 4.90361C19.8195 4.90015 19.7744 4.90806 19.7332 4.92662L16.4222 6.39802C16.395 6.41015 16.3677 6.42165 16.3402 6.43253V19.2421ZM5.52244 6.14877L8.65265 4.75794V17.5626C8.6263 17.5731 8.60012 17.5842 8.57414 17.5959L5.26215 19.0728C5.22094 19.0912 5.17578 19.0989 5.13079 19.0953C5.08581 19.0917 5.04243 19.0769 5.00468 19.0521C4.96692 19.0274 4.93598 18.9936 4.91467 18.9538C4.89338 18.9141 4.88239 18.8696 4.88276 18.8244V7.13462C4.88294 6.9261 4.94343 6.72211 5.05694 6.54718C5.17044 6.37227 5.33209 6.23389 5.52244 6.14877Z" fill="white"/>
</svg>
