<svg width="24" height="24" viewBox="0 0 24 24" fill="none" xmlns="http://www.w3.org/2000/svg">
<path d="M12 3.25098C11.5359 3.25098 11.0908 3.43535 10.7626 3.76354C10.4344 4.09173 10.25 4.53685 10.25 5.00098C10.25 5.46511 10.4344 5.91022 10.7626 6.23841C11.0908 6.5666 11.5359 6.75098 12 6.75098C12.4641 6.75098 12.9092 6.5666 13.2374 6.23841C13.5656 5.91022 13.75 5.46511 13.75 5.00098C13.75 4.53685 13.5656 4.09173 13.2374 3.76354C12.9092 3.43535 12.4641 3.25098 12 3.25098Z" fill="#D4D4D4"/>
<path d="M12 10.251C11.5359 10.251 11.0908 10.4354 10.7626 10.7635C10.4344 11.0917 10.25 11.5368 10.25 12.001C10.25 12.4651 10.4344 12.9102 10.7626 13.2384C11.0908 13.5666 11.5359 13.751 12 13.751C12.4641 13.751 12.9092 13.5666 13.2374 13.2384C13.5656 12.9102 13.75 12.4651 13.75 12.001C13.75 11.5368 13.5656 11.0917 13.2374 10.7635C12.9092 10.4354 12.4641 10.251 12 10.251Z" fill="#D4D4D4"/>
<path d="M12 17.251C11.5359 17.251 11.0908 17.4353 10.7626 17.7635C10.4344 18.0917 10.25 18.5368 10.25 19.001C10.25 19.4651 10.4344 19.9102 10.7626 20.2384C11.0908 20.5666 11.5359 20.751 12 20.751C12.4641 20.751 12.9092 20.5666 13.2374 20.2384C13.5656 19.9102 13.75 19.4651 13.75 19.001C13.75 18.5368 13.5656 18.0917 13.2374 17.7635C12.9092 17.4353 12.4641 17.251 12 17.251Z" fill="#D4D4D4"/>
</svg>
