<svg width="25" height="24" viewBox="0 0 25 24" fill="none" xmlns="http://www.w3.org/2000/svg">
<path fill-rule="evenodd" clip-rule="evenodd" d="M22.5 12C22.5 17.5228 18.0228 22 12.5 22C6.97715 22 2.5 17.5228 2.5 12C2.5 6.47715 6.97715 2 12.5 2C18.0228 2 22.5 6.47715 22.5 12ZM15.5 9C15.5 10.6569 14.1569 12 12.5 12C10.8431 12 9.5 10.6569 9.5 9C9.5 7.34315 10.8431 6 12.5 6C14.1569 6 15.5 7.34315 15.5 9ZM12.5 20.5C14.284 20.5 15.9397 19.9504 17.3069 19.0112C17.9108 18.5964 18.1688 17.8062 17.8178 17.1632C17.09 15.8303 15.5902 15 12.4999 15C9.40969 15 7.90997 15.8302 7.18214 17.1632C6.83105 17.8062 7.0891 18.5963 7.69296 19.0111C9.06018 19.9503 10.7159 20.5 12.5 20.5Z" fill="#5AC268"/>
</svg>
