<svg width="28" height="28" viewBox="0 0 28 28" fill="none" xmlns="http://www.w3.org/2000/svg">
<path fill-rule="evenodd" clip-rule="evenodd" d="M3.46642 23.4589C3.85154 23.5138 4.22674 23.308 4.38715 22.9537C5.36109 20.8033 6.70322 19.38 8.33574 18.4818C9.77307 17.6911 11.4838 17.2814 13.454 17.1902V20.5672C13.454 22.2344 15.4304 23.1344 16.6799 22.0057C18.9955 19.9132 22.9718 16.3194 24.7398 14.72C25.6138 13.9303 25.5752 12.566 24.69 11.8151L16.6405 4.99626C15.386 3.93364 13.4585 4.82185 13.4564 6.46815L13.4546 9.08446C10.6046 9.21919 8.44809 10.0158 6.83692 11.2142C5.06977 12.5287 4.03144 14.2726 3.4306 15.9746C2.83152 17.6715 2.65745 19.3522 2.62934 20.5958C2.61522 21.2206 2.63785 21.7427 2.66434 22.1116C2.70494 22.677 2.76619 23.3589 3.46642 23.4589ZM15.204 9.93968L15.2064 6.47041C15.2069 6.3168 15.3891 6.22962 15.5093 6.33156L23.5579 13.1496C23.6476 13.2258 23.6439 13.3517 23.5665 13.4217C21.7988 15.0206 17.8224 18.6145 15.5068 20.7072C15.3952 20.8076 15.204 20.7348 15.204 20.5672V16.2954C15.204 15.8121 14.8123 15.4204 14.329 15.4204C11.7955 15.4204 9.47464 15.8581 7.49224 16.9485C6.33607 17.5846 5.31629 18.4311 4.4463 19.5091C4.5352 18.5997 4.72164 17.5746 5.08074 16.5572C5.59664 15.096 6.45916 13.6763 7.88144 12.6183C9.29894 11.5639 11.3456 10.8142 14.329 10.8142C14.8121 10.8142 15.2038 10.4227 15.204 9.93968Z" fill="#D4D4D4"/>
</svg>
