<svg width="34" height="34" viewBox="0 0 34 34" fill="none" xmlns="http://www.w3.org/2000/svg">
<g filter="url(#filter0_b_2086_7055)">
<rect width="34" height="34" rx="17" fill="#131313" fill-opacity="0.4"/>
<path fill-rule="evenodd" clip-rule="evenodd" d="M19.0063 13.6534C18.8952 11.8704 16.9826 10.602 15.3381 11.6295L13.2476 12.9362C13.1016 13.0277 12.8656 13.09 12.6592 13.09C12.6464 13.09 12.6336 13.0905 12.6209 13.0914C12.388 13.1087 12.1914 13.1157 12.0111 13.1222L11.96 13.1241C11.7716 13.1309 11.5847 13.1384 11.4087 13.1621C11.0172 13.2147 10.6922 13.3457 10.3245 13.6516L10.3236 13.6524C9.84492 14.0524 9.68486 14.717 9.61688 15.2739C9.5549 15.7817 9.55672 16.3382 9.55822 16.8002C9.55845 16.8689 9.55867 16.9357 9.55867 16.9998C9.55867 17.0625 9.55847 17.1277 9.55826 17.1949C9.55682 17.6583 9.55508 18.2168 9.61744 18.7264C9.68559 19.2832 9.84565 19.9476 10.3231 20.3475L10.3262 20.3501C10.6953 20.6544 11.0191 20.7849 11.4103 20.8374C11.5861 20.861 11.7727 20.8685 11.9612 20.8755L12.0085 20.8772C12.1899 20.8838 12.3883 20.8911 12.624 20.9088C12.6369 20.9098 12.6499 20.9103 12.6629 20.9103C12.8687 20.9103 13.1001 20.9716 13.247 21.0637L15.3381 22.3707C16.9783 23.3956 18.9085 22.133 19.0065 20.3447C19.1681 18.1143 19.1681 15.8838 19.0063 13.6534ZM15.8884 12.5102L13.7986 13.8164C13.4652 14.0253 13.0402 14.1247 12.6796 14.1284C12.4339 14.1462 12.2247 14.1537 12.0493 14.16L11.9977 14.1618C11.8022 14.1689 11.6651 14.1754 11.547 14.1913C11.3507 14.2177 11.2077 14.2678 10.9891 14.4495C10.8414 14.5733 10.7124 14.87 10.6477 15.3998C10.5942 15.8378 10.5955 16.3221 10.5968 16.7904L10.5968 16.7912C10.5969 16.8611 10.5971 16.9308 10.5971 16.9998C10.5971 17.0672 10.597 17.1353 10.5968 17.2037C10.5956 17.6736 10.5944 18.1605 10.6482 18.6003C10.7129 19.1291 10.8416 19.426 10.9886 19.5503C11.2095 19.732 11.3527 19.7819 11.5485 19.8081C11.6665 19.824 11.8036 19.8305 11.9995 19.8377L12.0477 19.8395C12.2241 19.8459 12.4354 19.8536 12.6835 19.8719C13.0458 19.8756 13.4659 19.9753 13.7983 20.1837L15.8884 21.4901C16.7553 22.0317 17.9104 21.4113 17.9698 20.2846L17.9704 20.2744C18.1288 18.0915 18.1288 15.9087 17.9704 13.7258L17.97 13.7199C17.9005 12.5825 16.7517 11.9708 15.8884 12.5102Z" fill="white"/>
<path d="M20.5992 13.993C20.8479 13.8501 21.1652 13.9359 21.3081 14.1846C22.3094 15.9276 22.3094 18.0722 21.3081 19.8152C21.1652 20.0639 20.8479 20.1496 20.5992 20.0068C20.3505 19.8639 20.2648 19.5466 20.4077 19.2979C21.2249 17.8752 21.2249 16.1246 20.4077 14.7018C20.2648 14.4532 20.3505 14.1358 20.5992 13.993Z" fill="white"/>
<path d="M23.0198 12.4748C22.8557 12.2396 22.5321 12.182 22.2969 12.346C22.0617 12.5101 22.004 12.8337 22.1681 13.0689C23.8157 15.4312 23.8157 18.5701 22.1681 20.9324C22.004 21.1675 22.0617 21.4912 22.2969 21.6553C22.5321 21.8193 22.8557 21.7616 23.0198 21.5264C24.9164 18.8072 24.9164 15.194 23.0198 12.4748Z" fill="white"/>
</g>
<defs>
<filter id="filter0_b_2086_7055" x="-36" y="-36" width="106" height="106" filterUnits="userSpaceOnUse" color-interpolation-filters="sRGB">
<feFlood flood-opacity="0" result="BackgroundImageFix"/>
<feGaussianBlur in="BackgroundImageFix" stdDeviation="18"/>
<feComposite in2="SourceAlpha" operator="in" result="effect1_backgroundBlur_2086_7055"/>
<feBlend mode="normal" in="SourceGraphic" in2="effect1_backgroundBlur_2086_7055" result="shape"/>
</filter>
</defs>
</svg>
