<svg width="34" height="34" viewBox="0 0 34 34" fill="none" xmlns="http://www.w3.org/2000/svg">
<g filter="url(#filter0_b_2140_11038)">
<rect width="34" height="34" rx="17" fill="#131313" fill-opacity="0.4"/>
<path fill-rule="evenodd" clip-rule="evenodd" d="M23.598 11.3952C23.8008 11.1924 23.8008 10.8636 23.598 10.6609C23.3952 10.4581 23.0664 10.4581 22.8637 10.6609L20.3374 13.1871C20.1729 11.3255 18.1694 10.04 16.4519 11.1126L14.2047 12.5155L14.203 12.5166C14.0364 12.6215 13.7773 12.6903 13.5543 12.6903C13.5419 12.6903 13.5294 12.6907 13.517 12.6916C13.2654 12.7097 13.0527 12.717 12.8583 12.7236L12.8026 12.7255C12.599 12.7325 12.3993 12.7402 12.2118 12.765C11.7973 12.8198 11.4536 12.9568 11.0644 13.2812C10.5601 13.7026 10.3871 14.4049 10.3136 15.0041C10.2469 15.5477 10.2489 16.1426 10.2505 16.6374C10.2508 16.7113 10.251 16.7837 10.251 16.8526C10.251 16.9137 10.2509 16.9767 10.2507 17.0415L10.2507 17.0473C10.2494 17.5501 10.2478 18.1554 10.3163 18.708C10.3907 19.3075 10.563 20.0078 11.0618 20.429L11.0666 20.433C11.4579 20.7555 11.8004 20.8925 12.2142 20.9473C12.3221 20.9616 12.4339 20.9702 12.5482 20.9763L10.9199 22.6046C10.7171 22.8074 10.7171 23.1362 10.9199 23.339C11.1227 23.5417 11.4514 23.5417 11.6542 23.339L23.598 11.3952ZM13.543 19.9816L19.3549 14.1696C19.3414 13.8894 19.3242 13.6057 19.3064 13.3243C19.229 12.0743 17.9633 11.393 17.0019 11.9934L14.7564 13.3953L14.7554 13.3959C14.4054 13.616 13.9581 13.725 13.5741 13.7287C13.3096 13.7473 13.0841 13.755 12.8946 13.7614L12.8384 13.7633C12.6278 13.7706 12.4776 13.7774 12.3478 13.7945C12.1278 13.8236 11.9675 13.8804 11.7295 14.0787C11.5551 14.2246 11.4143 14.5601 11.3443 15.1306C11.2863 15.604 11.2877 16.1262 11.2891 16.627C11.2893 16.7028 11.2895 16.7782 11.2895 16.8526C11.2895 16.9183 11.2894 16.9845 11.2892 17.051L11.2892 17.052C11.2881 17.5629 11.287 18.0976 11.3469 18.5802C11.4176 19.1503 11.5577 19.4869 11.7298 19.6339C11.9713 19.8324 12.1324 19.889 12.3507 19.9178C12.4799 19.935 12.6294 19.9417 12.8395 19.949L12.8982 19.951C13.0793 19.9572 13.2932 19.9645 13.543 19.9816Z" fill="white"/>
<path d="M19.9523 17.1534C20.2391 17.158 20.4678 17.3942 20.4631 17.6809C20.4481 18.6096 20.4024 19.5281 20.3429 20.4504C20.2413 22.3501 18.1882 23.683 16.4527 22.6001L16.4518 22.5996L15.6694 22.1154C15.4256 21.9644 15.3502 21.6444 15.5011 21.4006C15.6521 21.1567 15.9721 21.0814 16.216 21.2323L17.0001 21.7176L17.0019 21.7187C17.9666 22.3212 19.2416 21.6262 19.3061 20.3928L19.3063 20.3865C19.3653 19.4729 19.4101 18.5713 19.4248 17.6642C19.4294 17.3774 19.6656 17.1488 19.9523 17.1534Z" fill="white"/>
</g>
<defs>
<filter id="filter0_b_2140_11038" x="-36" y="-36" width="106" height="106" filterUnits="userSpaceOnUse" color-interpolation-filters="sRGB">
<feFlood flood-opacity="0" result="BackgroundImageFix"/>
<feGaussianBlur in="BackgroundImageFix" stdDeviation="18"/>
<feComposite in2="SourceAlpha" operator="in" result="effect1_backgroundBlur_2140_11038"/>
<feBlend mode="normal" in="SourceGraphic" in2="effect1_backgroundBlur_2140_11038" result="shape"/>
</filter>
</defs>
</svg>
